# xmcd
#
# Track frame offsets:
# 150
# 9391
# 23070
# 33251
# 45768
# 59137
# 71514
# 85011
# 97548
# 112202
# 129154
# 144170
# 155506
# 170698
# 186819
# 203899
# 221261
# 240813
# 255608
# 277357
# 291003
# 305285
# 317144
# 332141
#
# Disc length: 4631 seconds
#
#
# Revision: 0
# Processed by: cddbd v1.5.2PL0 Copyright (c) Steve Scherf et al.
# Submitted via: FreeRIP 2.941 
#
DISCID=45121518
DTITLE=MILIONARIO E JOSE RICO - SEMPRE SUCESSOS
DYEAR=2010
DGENRE=SERTANEJO
TTITLE0=ESTRADA DA VIDA
TTITLE1=SAUDADE DA MINHA TERRA
TTITLE2=ALINE
TTITLE3=DO MUNDO NADA SE LEVA
TTITLE4=DE AMOR PARA QUEM SE AMA
TTITLE5=CORACAO DE PEDRA
TTITLE6=DE LONGE TAMBEM SE AMA
TTITLE7=MIGALHAS DE AMOR
TTITLE8=AMOR DIVIDIDO
TTITLE9=ESQUINA DO ADEUS
TTITLE10=JOGO DO AMOR
TTITLE11=O TROPEIRO
TTITLE12=DUAS CAMISAS
TTITLE13=SONHOS DE UM CAMINHONEIRO
TTITLE14=MEU MUNDO
TTITLE15=TRIBUNAL DO AMOR
TTITLE16=SONHEI COM VOCE
TTITLE17=CABECINHA NO OMBRO
TTITLE18=LEMBRANCA
TTITLE19=VA PRO INFERNO COM SEU AMOR
TTITLE20=FAZ UM ANO
TTITLE21=NASCI PRA TE AMAR
TTITLE22=ESCRAVO DO AMOR
TTITLE23=NIGUEM E DE NINGUEM
EXTD=
EXTT0=
EXTT1=
EXTT2=
EXTT3=
EXTT4=
EXTT5=
EXTT6=
EXTT7=
EXTT8=
EXTT9=
EXTT10=
EXTT11=
EXTT12=
EXTT13=
EXTT14=
EXTT15=
EXTT16=
EXTT17=
EXTT18=
EXTT19=
EXTT20=
EXTT21=
EXTT22=
EXTT23=
PLAYORDER=
